<svg width="28" height="28" viewBox="0 0 28 28" fill="none" xmlns="http://www.w3.org/2000/svg">
<path d="M22.3412 0.0017395H5.65529C2.53017 0.0017395 0 2.53191 0 5.65703V22.3464C0 25.4681 2.53017 27.9982 5.65529 27.9982H22.3447C25.4663 27.9982 28 25.4681 28 22.343V5.65703C27.9965 2.53191 25.4663 0.0017395 22.3412 0.0017395V0.0017395Z" fill="url(#paint0_linear_5_97)"/>
<path d="M13.8792 6.43391L14.4462 5.45402C14.7961 4.84157 15.5765 4.63513 16.189 4.98507C16.8014 5.33502 17.0079 6.11541 16.6579 6.72785L11.1951 16.1837H15.1461C16.4269 16.1837 17.1443 17.6885 16.5879 18.7314H5.0044C4.29751 18.7314 3.73056 18.1644 3.73056 17.4575C3.73056 16.7506 4.29751 16.1837 5.0044 16.1837H8.25201L12.4095 8.97808L11.1112 6.72435C10.7612 6.11191 10.9677 5.33852 11.5801 4.98157C12.1926 4.63163 12.966 4.83807 13.3229 5.45052L13.8792 6.43391Z" fill="white"/>
<path d="M8.96589 20.0437L7.74106 22.1679C7.39111 22.7804 6.61072 22.9868 5.99828 22.6369C5.38583 22.2869 5.17939 21.5065 5.52933 20.8941L6.43922 19.3193C7.46806 19.0009 8.30445 19.2458 8.96589 20.0437V20.0437Z" fill="white"/>
<path d="M19.5135 16.1907H22.8276C23.5345 16.1907 24.1014 16.7577 24.1014 17.4646C24.1014 18.1714 23.5345 18.7384 22.8276 18.7384H20.9868L22.2291 20.8941C22.5791 21.5066 22.3726 22.2799 21.7602 22.6369C21.1477 22.9868 20.3744 22.7804 20.0174 22.1679C17.9247 18.5389 16.3533 15.8233 15.3105 14.014C14.2431 12.1732 15.0061 10.3254 15.7585 9.69904C16.5949 11.1339 17.8442 13.3001 19.5135 16.1907V16.1907Z" fill="white"/>
<defs>
<linearGradient id="paint0_linear_5_97" x1="14" y1="0.0017395" x2="14" y2="27.9982" gradientUnits="userSpaceOnUse">
<stop stop-color="#00BFFC"/>
<stop offset="1" stop-color="#0073F6"/>
</linearGradient>
</defs>
</svg>
