<svg width="20" height="24" viewBox="0 0 20 24" fill="none" xmlns="http://www.w3.org/2000/svg">
<path d="M18.9429 10.3205L15.1495 8.12955L11.2659 12.0131L15.1492 15.8965L18.9558 13.6982C19.5494 13.3375 19.9036 12.7075 19.9036 12.0131C19.9036 11.3187 19.5491 10.6887 18.9429 10.3205V10.3205Z" fill="#FFCE00"/>
<path d="M11.2659 12.0132L0.687758 1.35889C0.319838 1.72681 0.0963974 2.22605 0.0963974 2.77793V21.2159C0.0963974 21.7678 0.319838 22.267 0.687758 22.6352L11.2659 12.0132Z" fill="url(#paint0_linear_5_72)"/>
<path d="M11.2659 12.0132L15.1495 8.12956L15.1556 8.1234L9.95212 5.1274L3.09268 1.09596C2.475 0.71488 1.726 0.70172 1.09516 1.05648C0.950679 1.14832 0.819079 1.24044 0.687759 1.3586L11.2659 12.0132Z" fill="#00F076"/>
<path d="M0.687759 22.635C0.819079 22.7531 0.950679 22.8452 1.09516 22.9371C1.41044 23.1079 1.73916 23.2 2.0676 23.2C2.42236 23.2 2.76396 23.095 3.07952 22.911L9.95184 18.8989L15.1554 15.9029L15.1492 15.8968L11.2659 12.0132L0.687759 22.635Z" fill="#F63448"/>
<defs>
<linearGradient id="paint0_linear_5_72" x1="-4.63112" y1="17.3161" x2="6.00692" y2="6.67777" gradientUnits="userSpaceOnUse">
<stop stop-color="#00E2FF"/>
<stop offset="1" stop-color="#00C5FF"/>
</linearGradient>
</defs>
</svg>
