<svg width="28" height="24" viewBox="0 0 28 24" fill="none" xmlns="http://www.w3.org/2000/svg">
<g clip-path="url(#clip0_5_112)">
<path fill-rule="evenodd" clip-rule="evenodd" d="M20.122 0H7.878C2.095 0 0 1.82 0 6.752V17.248C0 22.204 2.124 24 7.878 24H20.122C25.905 24 28 22.18 28 17.248V6.752C28.03 1.821 25.905 0 20.122 0Z" fill="#C8102E"/>
<path d="M5.444 12H6.19V15.374H5.444V14.014H3.745V15.374H3V12H3.745V13.36H5.445V12H5.444ZM9.678 13.932C9.678 14.476 9.379 14.775 8.843 14.775C8.306 14.775 8.008 14.475 8.008 13.905V12H7.263V13.932C7.263 14.884 7.829 15.428 8.843 15.428C9.856 15.428 10.453 14.884 10.453 13.904V12H9.707V13.932H9.677H9.678ZM18.352 14.312L17.518 12H16.892L16.057 14.313L15.252 12H14.447L15.729 15.374H16.355L17.19 13.143L18.024 15.373H18.65L19.932 12H19.157L18.352 14.313V14.312ZM21.303 13.932H22.675V13.306H21.303V12.626H23.301V12H20.588V15.374H23.39V14.748H21.333V13.932H21.303ZM24.255 15.374H25V12H24.255V15.374V15.374ZM11.913 14.666L11.585 15.374H10.81L12.42 12H13.076L14.686 15.374H13.911L13.613 14.666H11.913V14.666ZM12.182 14.068H13.314L12.748 12.871L12.182 14.068V14.068ZM13.5 8.571C11.022 8.571 9 6.646 9 4.286H9.627C9.627 6.32 11.364 7.975 13.5 7.975C15.636 7.975 17.373 6.32 17.373 4.285H18C18 6.645 15.978 8.571 13.5 8.571Z" fill="white"/>
</g>
<defs>
<clipPath id="clip0_5_112">
<rect width="28" height="24" fill="white"/>
</clipPath>
</defs>
</svg>
