<svg width="18" height="18" viewBox="0 0 18 18" fill="none" xmlns="http://www.w3.org/2000/svg">
<path fill-rule="evenodd" clip-rule="evenodd" d="M0.654003 0.0609949C0.506408 0.110164 0.373324 0.195197 0.266686 0.308468C0.160047 0.421738 0.0831891 0.559705 0.0430034 0.709995C0.0160034 0.804995 3.4099e-06 2.04699 3.4099e-06 4.05999C3.4099e-06 7.59499 -0.00399661 7.547 0.262003 7.81999C0.565003 8.132 0.349003 8.115 4.058 8.116H7.381L7.591 8.017C7.838 7.901 7.914 7.82399 8.029 7.56899C8.113 7.38499 8.115 7.309 8.115 4.05699C8.115 0.346995 8.132 0.562995 7.82 0.258995C7.547 -0.00600508 7.598 -0.00300509 4.04 -0.00100509C1.385 0.00199491 0.790003 0.0129949 0.654003 0.0609949ZM10.513 0.0629949C10.3923 0.105973 10.2814 0.172597 10.1868 0.258968C10.0922 0.345338 10.0158 0.449718 9.962 0.565995C9.889 0.724995 9.885 0.928995 9.885 4.05799C9.885 7.30999 9.887 7.38599 9.97 7.56999C10.086 7.825 10.161 7.90199 10.409 8.01799L10.619 8.118L13.941 8.11699C17.065 8.11699 17.274 8.11099 17.432 8.03899C17.5615 7.97745 17.6758 7.88794 17.7666 7.77693C17.8574 7.66592 17.9224 7.53616 17.957 7.39699C17.992 7.23399 18.002 6.27199 17.992 3.93199C17.98 0.863995 17.975 0.684995 17.901 0.544995C17.8095 0.357627 17.6596 0.204994 17.474 0.109995C17.307 0.0199949 17.296 0.0199949 14.004 0.0119949C11.269 0.00499491 10.671 0.0139949 10.513 0.0619949V0.0629949ZM6.308 4.07899V6.30899H1.85V1.84899H6.308V4.07899ZM16.149 4.07899V6.30899H11.691V1.84899H16.15V4.07899H16.149ZM0.569003 9.96399C0.455853 10.0205 0.352262 10.0944 0.262003 10.183C-0.00599661 10.458 -0.00199659 10.402 0.0100034 14.033C0.0210034 17.139 0.0260034 17.318 0.100003 17.457C0.210003 17.664 0.332003 17.787 0.526003 17.893C0.694003 17.983 0.711004 17.983 3.933 17.996C6.273 18.006 7.233 17.996 7.397 17.961C7.53617 17.9264 7.66593 17.8613 7.77694 17.7706C7.88795 17.6798 7.97745 17.5655 8.039 17.436C8.111 17.278 8.116 17.069 8.116 13.944V10.621L8.018 10.411C7.902 10.163 7.825 10.088 7.57 9.972C7.386 9.889 7.31 9.887 4.06 9.887C0.931003 9.887 0.727003 9.891 0.569003 9.96399ZM10.473 9.93999C10.273 10.004 9.999 10.289 9.936 10.5C9.896 10.63 9.884 11.48 9.885 13.97C9.886 17.683 9.865 17.448 10.21 17.758C10.3126 17.8489 10.4347 17.915 10.5669 17.9512C10.6991 17.9874 10.8379 17.9927 10.9725 17.9669C11.1071 17.941 11.2339 17.8845 11.3432 17.8018C11.4526 17.7191 11.5414 17.6125 11.603 17.49C11.692 17.306 11.693 17.277 11.693 14.5V11.694H12.576V12.23C12.576 12.705 12.588 12.79 12.676 12.977C12.791 13.224 12.869 13.3 13.123 13.415C13.304 13.498 13.392 13.501 15.279 13.502C17.468 13.502 17.419 13.508 17.719 13.217C17.969 12.973 18.001 12.8 18.001 11.694C18.001 10.616 17.966 10.415 17.739 10.182C17.6549 10.0897 17.5524 10.016 17.4381 9.96559C17.3239 9.91516 17.2004 9.88912 17.0755 9.88912C16.9506 9.88912 16.8271 9.91516 16.7129 9.96559C16.5986 10.016 16.4962 10.0897 16.412 10.182C16.218 10.382 16.15 10.65 16.15 11.218V11.694H14.384V11.136C14.383 10.688 14.367 10.546 14.306 10.41C14.209 10.198 13.972 9.987 13.765 9.93C13.545 9.868 10.67 9.87799 10.473 9.93999ZM6.309 13.924V16.154H1.85V11.694H6.308V13.924H6.309ZM13.205 16.217C13.0255 16.2803 12.8695 16.3966 12.7575 16.5505C12.6456 16.7045 12.583 16.8887 12.578 17.079C12.578 17.487 12.892 17.873 13.297 17.961C13.455 17.996 14.084 18.006 15.415 17.997C17.259 17.983 17.311 17.981 17.475 17.893C17.801 17.717 17.975 17.433 17.975 17.079C17.975 16.724 17.801 16.44 17.475 16.265C17.311 16.176 17.265 16.174 15.351 16.165C13.766 16.159 13.36 16.169 13.205 16.217Z" fill="black"/>
</svg>
